<?xml version="1.0" encoding="UTF-8"?>
<svg id="Camada_1" xmlns="http://www.w3.org/2000/svg" version="1.1" viewBox="0 0 554.8 768">
  <!-- Generator: Adobe Illustrator 30.4.0, SVG Export Plug-In . SVG Version: 2.1.4 Build 226)  -->
  <defs>
    <style>
      .st0 {
        fill: #8b6f47;
      }
    </style>
  </defs>
  <g>
    <path class="st0" d="M508.2,370.5c-12.6-29.8-30.6-56.6-53.7-79.6-23-23-49.7-41-79.6-53.7-30.8-13.1-63.7-19.7-97.5-19.7s-66.6,6.6-97.5,19.7c-29.8,12.6-56.6,30.7-79.6,53.7-23,23-41,49.7-53.7,79.6-13.1,30.8-19.7,63.7-19.7,97.5s6.6,66.6,19.7,97.5c12.6,29.8,30.7,56.6,53.7,79.6,23,23,49.7,41,79.6,53.7,30.8,13.1,63.7,19.7,97.5,19.7s66.6-6.6,97.5-19.7c29.8-12.6,56.6-30.7,79.6-53.7,23-23,41-49.7,53.7-79.6,13.1-30.8,19.7-63.7,19.7-97.5s-6.6-66.6-19.7-97.5M475.3,551.6c-10.8,25.6-26.3,48.5-46,68.2-19.7,19.7-42.6,35.2-68.2,46-26.5,11.3-54.6,16.9-83.6,16.9s-57.1-5.7-83.6-16.9c-25.6-10.8-48.6-26.3-68.2-46s-35.2-42.7-46-68.2c-11.3-26.5-16.9-54.6-16.9-83.6s5.7-57.1,16.9-83.6c10.8-25.6,26.3-48.5,46-68.2,19.7-19.7,42.6-35.2,68.2-46,26.5-11.3,54.6-16.9,83.6-16.9s57.1,5.7,83.6,16.9c25.6,10.8,48.5,26.3,68.2,46s35.2,42.6,46,68.2c11.3,26.5,16.9,54.6,16.9,83.6s-5.7,57.1-16.9,83.6Z"/>
    <g>
      <path class="st0" d="M322.1,481.7c-18.4-7-37.5-11.1-56.7-14.8-22.5-4.4-44.7-9.9-65.3-20.4-25.7-13.1-42.5-32.9-45.6-62.4-1.2-11.3-1.4-22.6-2.1-34.1-.8,2.1-1.7,4.4-2.5,6.8-3.7,11.5-4.5,23.4-4.5,35.4,0,32.7,14.6,56.8,42.2,73.7,24,14.7,50.6,22.1,77.5,29.2,16.7,4.4,33.2,9.4,49.5,15.2,6.7,2.4,12.9,7.1,18.4,11.9,7.2,6.4,10.5,15.1,9.9,26.2-3.8-2.6-6.5-4.4-9.1-6.3-7.3-5.3-14.7-5.7-22-1.2-.2.1-.5,0-1.4.1-9.3-8.7-19-17.6-28.6-26.6-7.5-7.1-8-7.1-15.6-.6-11,9.3-22.1,18.6-33.2,28-1.4-1.2-2.4-2-3.3-2.9-7.2-6.8-7.3-7-16-1.6-5.2,3.2-10.4,4.5-16.5,4.4-18.3-.3-36.6-.1-54.9-.1h-8.4c0,2.6-.3,4.4,0,6,7.2,41,29.1,70.9,67.3,88.2,18.5,8.4,38.2,12.4,58.3,14,23.7,1.9,47.3,1,70.3-5.6,27.2-7.8,46-23.8,51.5-53.2,8.9-47.7-12.6-91.6-59-109.4h0ZM348.8,562.8c-.1,0-.2,0-.4-.1-4.5-1.6-9.1-3.2-13.6-4.9-1.9-.7-3.9-1.5-5.8-2.2-4.2-1.8-7.4-1.3-11,1.8-1,.9-2.1,1.8-3.1,2.7-5,4.2-10.1,8.4-15.3,12.6-2.8,2.3-5.6,4.5-8.5,6.9h0c-4.4-8.5-8.7-16.8-13.1-25.2-3.4-6.6-6.9-13.3-10.5-20.3-2.8,2.3-5.6,4.6-8.4,6.8-7.1,5.8-14.1,11.4-21.1,17.1-4.1,3.4-8.3,6.7-12.5,10.2-2.3-7.1-4.2-13.2-6.4-19.8-.7.2-1.4.3-2.1.5-3.9.9-7.6,1.8-11.3,2.7-1.5.3-2.9.7-4.4,1-.1,0-.2.2-.4.2h-.1c.1-.2.3-.2.4-.2h0c4.9-3.1,9.8-6.2,14.9-9.5,1.4-.9,2.9-1.8,4.3-2.8h0c1.9,1.8,3.8,3.4,5.8,5.2,1.9,1.7,3.8,3.4,6,5.3,2.7-2.3,5.4-4.5,8.1-6.8,9.2-7.8,18.4-15.6,27.8-23.5,1.7-1.4,3.4-2.9,5.1-4.3h0c12.3,11.4,24.4,22.5,36.8,33.9,1-.7,1.9-1.3,2.9-2,2.9-1.9,5.7-3.8,8.9-6h0c9,6.4,18.1,13,27.3,19.6-.2.4-.4.7-.5,1.1h0Z"/>
      <path class="st0" d="M421.1,532.5c-.7-23.2-8.8-43.2-25.7-59.2-4.9-4.7-8.4-10-11.3-16-9.2-19-18.5-37.9-27.9-56.8-3.3-6.7-4.4-7-11.3-4.5-4.7,1.7-9.5,3.5-14.4,5.3-2.7-3.6-5.1-6.9-7.5-10.2-6.6-9.4-13-18.8-19.7-28.1-3.5-4.8-5.1-5-10.2-1.9-3.2,2-6.5,4-9.5,6.4-7,6-13.9,8-21,.2-.8-.9-2.2-1.2-3.2-2.1-3.3-2.8-6.5-2.2-9.7.2-5.4,3.9-10.7,7.7-16.2,11.5-2.8,2-5.7,3.8-8.9,5.9-2.6-13.9,2.9-25.8,14.3-32.8,14.5-8.9,30.5-9.1,46.5-7.5,24.6,2.5,42.1,14.2,48.1,39.6,1.1,4.8,4,5.7,8.4,5.6,20.9-.1,41.7,0,62.6,0,2,0,4-.4,7-.7-.2-3.3,0-5.9-.5-8.3-7.4-39.1-29.6-66.3-66.3-81.3-26.9-11-55.2-13.5-83.9-11.6-17.1,1.1-33.7,5-49,13-34.1,18-49.4,55.8-35.4,90.6,9.4,23.4,27.6,38.5,50.4,48.3,19.1,8.2,39.4,11.6,59.6,15.6,20,3.9,39.7,8.8,58.4,17.3,21.9,9.9,40.9,23.4,50.3,46.5,8.1,19.8,10.2,40.9,7.9,62.2-1,9.5-3.7,18.7-5.6,27.8,5.5-4.5,11.6-14,15.7-23.2,7.3-16.5,8.3-33.8,7.8-51.6h0ZM366.1,447.3c-6.1-8.5-11.7-17.2-17.6-25.9-2.7-3.9-3.8-5.4-6-5.3-.2,0-.5,0-.7,0-1.2.2-2.8.8-5.1,1.6-3,1.1-6,2.2-9.1,3.3-7.2,2.6-14.6,5.4-22.5,8.2-.6-1.7-1.2-3.4-1.8-5.1-4.9-14.3-7.9-28.9-14.2-43.4-2.8,2.3-5.6,4.5-8.4,6.8-10.8,8.6-21.3,17.1-32.7,26.3,0-.5,0-1,0-1.5-.4-6.2-.7-11.8-1.1-17.5-.2-2.8-.4-5.6-.5-8.6-7.9,3.1-15,5.9-22.1,8.7-1.5.6-2.9,1.1-4.4,1.7,0,0-.2.2-.3.3h-.1c.1-.2.2-.2.4-.3,1.4-1.3,2.7-2.6,4.1-3.9.6-.5,1.1-1,1.7-1.4,4.5-3.4,9.1-6.6,13.7-10,1.8-1.3,3.6-2.6,5.5-4,1.6-1.2,3.3-2.4,4.9-3.6,1.7-1.3,3.2-2,4.9-2.2,0,0,0,0,.1,0h0c1.6-.1,3.3.4,5.3,1.8,12.7,8.9,11.1,10.4,20.9,3.8,1.7-1.2,3.8-2.6,6.4-4.2.7-.5,1.5-.9,2.2-1.4,1-.6,2-1.3,3-2,1.5-1,3.1-2.1,4.9-3.2,2.4,3.2,4.6,6.1,6.8,9.1.8,1.1,1.6,2.2,2.4,3.3.5.6.9,1.3,1.4,1.9,5.6,7.8,11.3,15.6,16.5,23.7,1.7,2.6,3.4,3.7,5.5,3.8,1.2,0,2.6-.3,4.1-.9,4.7-2,9.4-3.7,14.7-5.7,1.5,2.3,3.1,4.3,4.2,6.5,5.8,11.8,11.6,23.6,17.4,35.4,3.4,6.9,6.8,13.8,10.2,20.8.4.8.5,1.7.8,2.6h0c0,0,.1.2.2.2h-.1s0-.1,0-.2c-4-5.2-8.1-10.3-12.1-15.6-1-1.3-2-2.6-2.9-3.9h0Z"/>
    </g>
  </g>
  <g>
    <polygon class="st0" points="277.4 49.5 292.5 96 341.4 96 301.9 124.7 317 171.2 277.4 142.5 237.9 171.2 253 124.7 213.4 96 262.3 96 277.4 49.5"/>
    <polygon class="st0" points="394.3 87.6 407.4 127.9 449.9 127.9 415.5 152.9 428.7 193.2 394.3 168.3 360 193.2 373.1 152.9 338.8 127.9 381.2 127.9 394.3 87.6"/>
    <polygon class="st0" points="160.5 87.6 173.6 127.9 216.1 127.9 181.8 152.9 194.9 193.2 160.5 168.3 126.2 193.2 139.3 152.9 105 127.9 147.4 127.9 160.5 87.6"/>
  </g>
</svg>